<?xml version="1.0" encoding="utf-8"?>
<!-- Generator: Adobe Illustrator 17.1.0, SVG Export Plug-In . SVG Version: 6.00 Build 0)  -->
<!DOCTYPE svg PUBLIC "-//W3C//DTD SVG 1.1//EN" "http://www.w3.org/Graphics/SVG/1.1/DTD/svg11.dtd">
<svg version="1.1" id="Layer_1" xmlns="http://www.w3.org/2000/svg" xmlns:xlink="http://www.w3.org/1999/xlink" x="0px" y="0px"
	 viewBox="0 0 52.5 52.3" enable-background="new 0 0 52.5 52.3" xml:space="preserve">
<symbol  id="ICOn_Home" viewBox="0 -24 26.9 24">
	<path fill="#FFFFFF" d="M26.6-12.6l-12,12.1c-0.6,0.6-1.6,0.7-2.2,0l-12-12.2C-0.3-13.3,0-14,0.9-14h2.6v-8.8c0-0.7,0-1.2,1.2-1.2
		h5.9v9h6v-9h6.2c0.9,0,0.9,0.5,0.9,1.2v8.8h2.6C27-14,27.2-13.2,26.6-12.6z"/>
</symbol>
<g>
	<g display="none" opacity="0">
		<path display="inline" fill="#404040" d="M52,50c0,1.1-0.9,2-2,2H2c-1.1,0-2-0.9-2-2V2c0-1.1,0.9-2,2-2h48c1.1,0,2,0.9,2,2V50z"/>
	</g>
	
		<use xlink:href="#ICOn_Home"  width="26.9" height="24" id="XMLID_1_" x="0" y="-24" transform="matrix(1.0467 0 0 -1.0467 12.56 13.6067)" overflow="visible"/>
</g>
</svg>
